<?xml version="1.0" encoding="utf-8"?>
<!-- Svg Vector Icons : http://www.onlinewebfonts.com/icon -->
<!DOCTYPE svg PUBLIC "-//W3C//DTD SVG 1.1//EN" "http://www.w3.org/Graphics/SVG/1.1/DTD/svg11.dtd">
<svg version="1.1" xmlns="http://www.w3.org/2000/svg" xmlns:xlink="http://www.w3.org/1999/xlink" x="0px" y="0px" viewBox="0 0 1000 1000" enable-background="new 0 0 1000 1000" xml:space="preserve">
<metadata> Svg Vector Icons : http://www.onlinewebfonts.com/icon </metadata>
<g><g transform="translate(0.000000,642.000000) scale(0.100000,-0.100000)"><path d="M3287.4,6292c-12.3-23,26-101.1,208.3-416.5c122.5-212.9,225.1-395.1,229.7-405.8c3.1-9.2-39.8-42.9-98-75c-292.5-162.3-626.3-447.1-810.1-692.2c-272.6-361.4-439.5-794.8-460.9-1194.4l-9.2-173h2659.9h2661.4l-10.7,134.8c-61.3,796.3-513,1485.4-1245,1901.9c-76.6,44.4-140.9,82.7-140.9,85.8c0,1.5,104.1,183.8,231.2,404.3c128.6,223.6,226.6,410.4,222,422.7c-12.2,33.7-55.1,44.4-78.1,19.9c-10.7-12.3-121-197.5-245-411.9c-124-214.4-226.6-392-228.2-393.6c-1.5-1.5-53.6,16.8-116.4,41.4c-585,238.9-1327.7,261.9-1941.7,59.7c-78.1-24.5-173-59.7-211.3-75l-67.4-29.1l-35.2,56.7c-19.9,30.6-121,205.2-225.1,385.9c-104.1,180.7-199.1,341.5-211.3,356.8C3336.4,6328.8,3305.8,6328.8,3287.4,6292z M3876.9,4665.8c70.4-42.9,119.4-150.1,108.7-238.9c-7.7-75-41.3-130.2-108.7-179.2c-62.8-47.5-212.9-44.4-281.8,3.1c-59.7,42.9-110.3,136.3-110.3,202.1c0,99.5,84.2,215.9,177.6,245C3722.3,4716.3,3817.2,4702.5,3876.9,4665.8z M6405.1,4665.8c147-90.3,145.5-307.8,0-418.1c-62.8-45.9-186.8-49-263.4-6.1c-130.2,75-165.4,255.7-72,366C6157.1,4711.7,6291.8,4734.7,6405.1,4665.8z"/><path d="M1269.1,3076.3c-44.4-16.9-99.5-42.9-124-61.3c-67.4-47.5-165.4-160.8-200.6-229.7c-78.1-151.6-78.1-147-78.1-1496.1c0-781,6.1-1287.9,15.3-1338.4c36.7-197.5,160.8-362.9,335.4-448.7c88.8-42.9,114.8-49,223.6-49c99.5,1.5,139.4,7.6,209.8,41.3c108.7,50.5,223.6,156.2,277.2,254.2c88.8,162.3,87.3,140.9,87.3,1522.1c0,880.5-4.6,1290.9-16.9,1347.6c-39.8,185.3-170,356.8-332.3,436.4C1553.9,3109.9,1384,3119.1,1269.1,3076.3z"/><path d="M8423.4,3085.5c-156.2-52.1-289.4-163.9-359.8-301.7c-73.5-145.5-76.6-183.8-76.6-1502.2c0-826.9,6.1-1263.3,16.8-1324.6c36.7-200.6,159.3-369.1,332.3-453.3c90.4-44.4,116.4-50.5,225.1-50.5c101.1,1.5,139.3,7.6,214.4,42.9c125.6,58.2,237.4,173,301.7,307.8l50.5,108.7l4.6,1323.1c3.1,1159.2,1.5,1333.8-19.9,1414.9c-65.8,258.8-274.1,438-517.6,448.7C8530.6,3102.3,8460.2,3096.2,8423.4,3085.5z"/><path d="M2331.8,3018.1c-6.1-4.6-10.7-926.5-10.7-2047.4v-2038.2l44.4-94.9c55.1-116.4,159.3-223.6,266.4-274.1c76.6-35.2,91.9-36.8,421.1-36.8h340v-707.5c0-756.5,7.7-840.7,76.6-978.5c50.5-98,176.1-222,274.1-269.5c75-36.7,104.1-42.9,223.6-42.9c117.9,0,150.1,6.1,222,39.8c110.3,53.6,196,128.6,255.7,229.7c93.4,156.2,96.5,188.4,96.5,996.9v732h459.4h459.4v-724.3c0-592.6,4.6-739.6,23-811.6c130.2-502.3,702.9-637,996.9-235.8c127.1,171.5,128.6,183.8,128.6,1030.6v739.6l356.8,4.6c317,4.6,361.4,7.7,416.5,35.2c79.6,38.3,208.2,168.4,254.2,254.2l36.8,67.4l4.6,2071.9l3.1,2070.3H5011.6C3543.1,3028.8,2336.4,3024.2,2331.8,3018.1z"/></g></g>
</svg>